<svg xmlns="http://www.w3.org/2000/svg" viewBox="0 0 278 324" role="img" aria-labelledby="title desc">
  <title id="title">Seseragi symbol</title>
  <desc id="desc">A circuit-like S flowing through a rounded hexagon.</desc>
  <defs>
    <linearGradient id="seseragi-gradient" x1="0" y1="0" x2="0" y2="1">
      <stop offset="0" stop-color="#008e9d"/>
      <stop offset="1" stop-color="#57d9b4"/>
    </linearGradient>
  </defs>
  <path d="M 267.00 251.00 L 255.00 262.00 L 163.00 317.00 L 153.00 321.00 L 144.00 323.00 L 134.00 323.00 L 121.00 320.00 L 115.00 317.00 L 25.00 263.00 L 18.00 258.00 L 11.00 251.00 L 7.00 245.00 L 3.00 237.00 L 0.00 224.00 L 0.00 103.00 L 2.00 92.00 L 7.00 80.00 L 12.00 73.00 L 17.00 68.00 L 27.00 61.00 L 115.00 6.00 L 124.00 2.00 L 133.00 0.00 L 145.00 0.00 L 159.00 4.00 L 234.00 49.00 L 261.00 68.00 L 272.00 80.00 L 277.00 98.00 L 277.00 228.00 L 275.00 236.00 Z" fill="url(#seseragi-gradient)"/>
  <path d="M 65.00 260.00 L 68.00 267.00 L 72.00 271.00 L 75.00 273.00 L 81.00 274.00 L 82.00 275.00 L 90.00 274.00 L 97.00 270.00 L 101.00 266.00 L 186.00 266.00 L 187.00 265.00 L 197.00 263.00 L 205.00 259.00 L 215.00 252.00 L 221.00 246.00 L 228.00 236.00 L 234.00 221.00 L 235.00 211.00 L 236.00 210.00 L 236.00 197.00 L 235.00 196.00 L 234.00 187.00 L 229.00 174.00 L 223.00 165.00 L 213.00 155.00 L 197.00 146.00 L 195.00 146.00 L 191.00 144.00 L 188.00 144.00 L 187.00 143.00 L 105.00 143.00 L 104.00 142.00 L 101.00 142.00 L 99.00 141.00 L 94.00 135.00 L 94.00 128.00 L 100.00 121.00 L 102.00 121.00 L 103.00 120.00 L 192.00 120.00 L 193.00 121.00 L 202.00 121.00 L 203.00 122.00 L 207.00 122.00 L 208.00 123.00 L 211.00 123.00 L 212.00 124.00 L 220.00 126.00 L 230.00 131.00 L 240.00 138.00 L 259.00 158.00 L 271.00 179.00 L 271.00 181.00 L 273.00 184.00 L 273.00 186.00 L 277.00 196.00 L 277.00 200.00 L 277.00 161.00 L 266.00 144.00 L 255.00 132.00 L 239.00 120.00 L 234.00 118.00 L 230.00 115.00 L 228.00 115.00 L 220.00 111.00 L 217.00 111.00 L 216.00 110.00 L 213.00 110.00 L 208.00 108.00 L 203.00 108.00 L 202.00 107.00 L 194.00 107.00 L 193.00 106.00 L 100.00 106.00 L 99.00 107.00 L 94.00 108.00 L 89.00 111.00 L 84.00 116.00 L 81.00 121.00 L 80.00 128.00 L 79.00 129.00 L 79.00 134.00 L 80.00 135.00 L 81.00 142.00 L 84.00 147.00 L 90.00 153.00 L 100.00 157.00 L 183.00 157.00 L 184.00 158.00 L 191.00 159.00 L 202.00 165.00 L 215.00 179.00 L 219.00 187.00 L 219.00 189.00 L 221.00 193.00 L 221.00 197.00 L 222.00 198.00 L 222.00 210.00 L 221.00 211.00 L 221.00 216.00 L 218.00 222.00 L 218.00 224.00 L 212.00 234.00 L 202.00 244.00 L 191.00 250.00 L 189.00 250.00 L 185.00 252.00 L 179.00 252.00 L 178.00 253.00 L 104.00 253.00 L 102.00 251.00 L 100.00 245.00 L 94.00 239.00 L 87.00 236.00 L 82.00 236.00 L 81.00 237.00 L 75.00 238.00 L 68.00 244.00 L 65.00 251.00 Z M 81.00 247.00 L 87.00 247.00 L 92.00 253.00 L 92.00 258.00 L 91.00 260.00 L 86.00 264.00 L 82.00 264.00 L 80.00 263.00 L 76.00 259.00 L 76.00 257.00 L 75.00 256.00 L 75.00 254.00 L 77.00 250.00 Z M 222.00 73.00 L 220.00 69.00 L 215.00 64.00 L 210.00 62.00 L 198.00 62.00 L 194.00 64.00 L 189.00 69.00 L 179.00 69.00 L 178.00 68.00 L 97.00 68.00 L 96.00 69.00 L 91.00 69.00 L 90.00 70.00 L 87.00 70.00 L 86.00 71.00 L 78.00 73.00 L 65.00 81.00 L 54.00 92.00 L 50.00 98.00 L 44.00 112.00 L 43.00 120.00 L 42.00 121.00 L 42.00 141.00 L 43.00 142.00 L 43.00 146.00 L 45.00 150.00 L 45.00 153.00 L 51.00 165.00 L 55.00 171.00 L 63.00 179.00 L 70.00 184.00 L 80.00 189.00 L 82.00 189.00 L 89.00 192.00 L 93.00 192.00 L 94.00 193.00 L 176.00 193.00 L 180.00 195.00 L 184.00 200.00 L 184.00 208.00 L 183.00 210.00 L 177.00 215.00 L 81.00 215.00 L 80.00 214.00 L 73.00 214.00 L 68.00 212.00 L 64.00 212.00 L 47.00 205.00 L 33.00 195.00 L 24.00 186.00 L 13.00 170.00 L 11.00 166.00 L 11.00 164.00 L 8.00 159.00 L 8.00 157.00 L 4.00 147.00 L 4.00 144.00 L 3.00 143.00 L 2.00 131.00 L 1.00 130.00 L 1.00 117.00 L 0.00 117.00 L 0.00 174.00 L 2.00 174.00 L 4.00 176.00 L 4.00 178.00 L 12.00 192.00 L 26.00 207.00 L 41.00 217.00 L 58.00 224.00 L 61.00 224.00 L 62.00 225.00 L 65.00 225.00 L 70.00 227.00 L 74.00 227.00 L 75.00 228.00 L 101.00 229.00 L 102.00 230.00 L 178.00 230.00 L 179.00 229.00 L 185.00 228.00 L 193.00 222.00 L 196.00 218.00 L 199.00 210.00 L 199.00 198.00 L 196.00 190.00 L 191.00 184.00 L 181.00 179.00 L 98.00 179.00 L 97.00 178.00 L 93.00 178.00 L 92.00 177.00 L 87.00 176.00 L 79.00 172.00 L 72.00 167.00 L 66.00 161.00 L 61.00 154.00 L 56.00 141.00 L 56.00 136.00 L 55.00 135.00 L 56.00 121.00 L 57.00 120.00 L 59.00 112.00 L 64.00 103.00 L 76.00 91.00 L 90.00 84.00 L 99.00 83.00 L 100.00 82.00 L 184.00 82.00 L 187.00 85.00 L 187.00 88.00 L 189.00 92.00 L 196.00 98.00 L 198.00 98.00 L 199.00 99.00 L 210.00 99.00 L 216.00 96.00 L 220.00 92.00 L 222.00 88.00 L 222.00 86.00 L 223.00 85.00 L 223.00 77.00 L 222.00 76.00 Z M 203.00 72.00 L 208.00 73.00 L 211.00 76.00 L 213.00 80.00 L 212.00 84.00 L 206.00 89.00 L 201.00 88.00 L 197.00 84.00 L 197.00 82.00 L 196.00 81.00 L 197.00 80.00 L 197.00 77.00 Z M 231.00 48.00 L 231.00 49.00 L 237.00 52.00 L 237.00 51.00 Z M 215.00 38.00 L 215.00 39.00 L 221.00 43.00 L 229.00 47.00 L 229.00 46.00 Z" fill="#ffffff" fill-rule="evenodd"/>
</svg>
